<svg width="768" height="768" viewBox="0 0 768 768" fill="none" xmlns="http://www.w3.org/2000/svg">
  <g stroke="#FFFFFF" stroke-width="14" stroke-linecap="round" stroke-linejoin="round">
    <!-- head -->
    <circle cx="420" cy="350" r="120" fill="none"/>
    <!-- nose/mouth stylized -->
    <path d="M360 370c40 30 120 30 160 0" fill="none"/>
    <path d="M420 420c14 0 26-8 26-18s-12-18-26-18-26 8-26 18 12 18 26 18z" fill="none"/>
    <!-- eyes -->
    <circle cx="380" cy="330" r="10"/>
    <circle cx="460" cy="330" r="10"/>

    <!-- hair tufts -->
    <path d="M470 260l14-26"/>
    <path d="M442 252l8-28"/>
    <path d="M498 272l22-22"/>

    <!-- ears -->
    <path d="M520 358c14 0 24 10 24 24s-10 24-24 24"/>
    <path d="M320 358c-14 0-24 10-24 24s10 24 24 24"/>

    <!-- right arm up touching head -->
    <path d="M308 470c-34-48-40-86-10-120"/>
    <path d="M300 350c30-16 54-12 72 10"/>

    <!-- body -->
    <path d="M334 468c0 70 0 180 0 238"/>
    <path d="M506 468c8 90 14 178 14 238"/>
    <path d="M334 468h186"/>

    <!-- left arm down -->
    <path d="M528 500c44-2 60 26 60 72"/>

    <!-- shirt text WMS -->
    <text x="372" y="520" font-family="Inter, system-ui, -apple-system, 'Segoe UI', Arial" font-size="52" fill="#FFFFFF">WMS</text>

    <!-- big question mark above head -->
    <path d="M420 128c0-38 30-64 70-64 40 0 70 26 70 64 0 64-84 50-84 108"/>
    <circle cx="476" cy="258" r="10" fill="#FFFFFF"/>
  </g>
</svg>
